HIERARCHY
ROOT Hips
{
	OFFSET 0.000000 83.214638 0.000000
	CHANNELS 6 Xposition Yposition Zposition Xrotation Yrotation Zrotation
	JOINT Pelvis
	{
		OFFSET 0.000000 0.000000 0.000000
		CHANNELS 3 Xrotation Yrotation Zrotation
		JOINT LeftUpLeg
		{
			OFFSET 8.479700 -4.795502 -0.379100
			CHANNELS 3 Xrotation Yrotation Zrotation
			JOINT LeftLeg
			{
				OFFSET 0.024144 -32.555107 0.112900
				CHANNELS 3 Xrotation Yrotation Zrotation
				JOINT LeftFoot
				{
					OFFSET -0.024144 -32.638630 -3.012600
					CHANNELS 3 Xrotation Yrotation Zrotation
					JOINT LeftToeBase
					{
						OFFSET 0.970200 -13.225400 11.864200
						CHANNELS 3 Xrotation Yrotation Zrotation
						End Site
						{
							OFFSET 0.000000 12.319262 0.000000
						}
					}
					JOINT LFootTongue
					{
						OFFSET 1.142400 -1.059800 6.665200
						CHANNELS 3 Xrotation Yrotation Zrotation
						End Site
						{
							OFFSET 0.000000 12.319262 0.000000
						}
					}
				}
				JOINT LeftPantLeg
				{
					OFFSET 0.918482 -16.533964 -2.284700
					CHANNELS 3 Xrotation Yrotation Zrotation
					End Site
					{
						OFFSET 0.350399 24.744368 0.000000
					}
				}
			}
		}
		JOINT RightUpLeg
		{
			OFFSET -8.479700 -4.795502 -0.379100
			CHANNELS 3 Xrotation Yrotation Zrotation
			JOINT RightLeg
			{
				OFFSET -0.023144 -32.555092 0.112900
				CHANNELS 3 Xrotation Yrotation Zrotation
				JOINT RightFoot
				{
					OFFSET 0.023144 -32.638641 -3.012700
					CHANNELS 3 Xrotation Yrotation Zrotation
					JOINT RightToeBase
					{
						OFFSET -0.970200 -13.225400 11.864200
						CHANNELS 3 Xrotation Yrotation Zrotation
						End Site
						{
							OFFSET 0.000000 12.319244 0.000000
						}
					}
					JOINT RFootTongue
					{
						OFFSET -1.142200 -1.059800 6.665200
						CHANNELS 3 Xrotation Yrotation Zrotation
						End Site
						{
							OFFSET 0.000000 12.319243 0.000000
						}
					}
				}
				JOINT RightPantLeg
				{
					OFFSET -0.919482 -16.533978 -2.284800
					CHANNELS 3 Xrotation Yrotation Zrotation
					End Site
					{
						OFFSET -0.350400 24.744419 0.000000
					}
				}
			}
		}
	}
	JOINT Spine
	{
		OFFSET 0.000000 7.722000 1.166200
		CHANNELS 3 Xrotation Yrotation Zrotation
		JOINT Spine1
		{
			OFFSET 0.000000 12.024101 0.248800
			CHANNELS 3 Xrotation Yrotation Zrotation
			JOINT Spine2
			{
				OFFSET 0.000000 11.502998 -0.491200
				CHANNELS 3 Xrotation Yrotation Zrotation
				JOINT Neck
				{
					OFFSET 0.000000 18.430702 -3.123100
					CHANNELS 3 Xrotation Yrotation Zrotation
					JOINT Head
					{
						OFFSET 0.000000 9.051102 1.034000
						CHANNELS 3 Xrotation Yrotation Zrotation
						JOINT HairB
						{
							OFFSET 0.208400 24.786102 24.822300
							CHANNELS 3 Xrotation Yrotation Zrotation
							End Site
							{
								OFFSET 0.000000 32.263779 0.000000
							}
						}
						JOINT HairA
						{
							OFFSET -7.081100 24.428299 23.196600
							CHANNELS 3 Xrotation Yrotation Zrotation
							End Site
							{
								OFFSET 0.000000 32.263779 0.000000
							}
						}
						JOINT Hat
						{
							OFFSET 16.728800 15.048294 -15.439601
							CHANNELS 3 Xrotation Yrotation Zrotation
							End Site
							{
								OFFSET 0.000000 32.263779 0.000000
							}
						}
					}
				}
				JOINT LeftShoulder
				{
					OFFSET 6.197800 13.665199 -4.064700
					CHANNELS 3 Xrotation Yrotation Zrotation
					JOINT LeftArm
					{
						OFFSET 7.778100 -0.187103 -1.709300
						CHANNELS 3 Xrotation Yrotation Zrotation
						JOINT LeftForeArm
						{
							OFFSET 22.049376 0.000000 0.000000
							CHANNELS 3 Xrotation Yrotation Zrotation
							JOINT LeftHand
							{
								OFFSET 23.009392 0.000000 0.000000
								CHANNELS 3 Xrotation Yrotation Zrotation
								JOINT LeftHandThumb1
								{
									OFFSET 3.507191 -2.063065 3.133727
									CHANNELS 3 Xrotation Yrotation Zrotation
									JOINT LeftHandThumb2
									{
										OFFSET 3.101337 -1.790558 1.790558
										CHANNELS 3 Xrotation Yrotation Zrotation
										JOINT LeftHandThumb3
										{
											OFFSET 3.058640 -1.765907 1.765906
											CHANNELS 3 Xrotation Yrotation Zrotation
											End Site
											{
												OFFSET -0.415260 3.926476 -0.049563
											}
										}
									}
								}
								JOINT LeftHandIndex1
								{
									OFFSET 11.334419 -0.901459 3.706815
									CHANNELS 3 Xrotation Yrotation Zrotation
									JOINT LeftHandIndex2
									{
										OFFSET 3.283112 0.000000 0.000000
										CHANNELS 3 Xrotation Yrotation Zrotation
										JOINT LeftHandIndex3
										{
											OFFSET 3.323853 0.000000 0.000000
											CHANNELS 3 Xrotation Yrotation Zrotation
											End Site
											{
												OFFSET -1.135597 3.097809 0.402452
											}
										}
									}
								}
								JOINT LeftHandMiddle1
								{
									OFFSET 11.335861 0.000000 0.000000
									CHANNELS 3 Xrotation Yrotation Zrotation
									JOINT LeftHandMiddle2
									{
										OFFSET 3.410492 0.000000 0.000000
										CHANNELS 3 Xrotation Yrotation Zrotation
										JOINT LeftHandMiddle3
										{
											OFFSET 3.312172 0.000000 0.000000
											CHANNELS 3 Xrotation Yrotation Zrotation
											End Site
											{
												OFFSET -1.150200 3.080154 0.400270
											}
										}
									}
								}
								JOINT LeftHandRing1
								{
									OFFSET 11.514786 -0.013176 -3.003090
									CHANNELS 3 Xrotation Yrotation Zrotation
									JOINT LeftHandRing2
									{
										OFFSET 3.053307 0.000000 0.000000
										CHANNELS 3 Xrotation Yrotation Zrotation
										JOINT LeftHandRing3
										{
											OFFSET 3.295807 0.000000 0.000000
											CHANNELS 3 Xrotation Yrotation Zrotation
											End Site
											{
												OFFSET -1.281006 3.013344 0.375733
											}
										}
									}
								}
								JOINT LeftHandPinky1
								{
									OFFSET 10.518692 -0.960396 -5.730441
									CHANNELS 3 Xrotation Yrotation Zrotation
									JOINT LeftHandPinky2
									{
										OFFSET 2.861649 0.000000 0.000000
										CHANNELS 3 Xrotation Yrotation Zrotation
										JOINT LeftHandPinky3
										{
											OFFSET 2.863380 0.000000 0.000000
											CHANNELS 3 Xrotation Yrotation Zrotation
											End Site
											{
												OFFSET -0.843597 2.711159 0.369971
											}
										}
									}
								}
							}
							JOINT LSleeve
							{
								OFFSET 6.676277 -0.344902 -1.011730
								CHANNELS 3 Xrotation Yrotation Zrotation
								End Site
								{
									OFFSET 0.000000 14.885353 0.000000
								}
							}
						}
					}
				}
				JOINT RightShoulder
				{
					OFFSET -6.197800 13.665199 -4.064700
					CHANNELS 3 Xrotation Yrotation Zrotation
					JOINT RightArm
					{
						OFFSET -7.778100 -0.187103 -1.709300
						CHANNELS 3 Xrotation Yrotation Zrotation
						JOINT RightForeArm
						{
							OFFSET -22.049376 0.000000 0.000000
							CHANNELS 3 Xrotation Yrotation Zrotation
							JOINT RightHand
							{
								OFFSET -23.009392 0.000000 0.000000
								CHANNELS 3 Xrotation Yrotation Zrotation
								JOINT RightHandThumb1
								{
									OFFSET -3.507191 -2.063065 3.133727
									CHANNELS 3 Xrotation Yrotation Zrotation
									JOINT RightHandThumb2
									{
										OFFSET -3.101337 -1.790558 1.790558
										CHANNELS 3 Xrotation Yrotation Zrotation
										JOINT RightHandThumb3
										{
											OFFSET -3.058640 -1.765907 1.765906
											CHANNELS 3 Xrotation Yrotation Zrotation
											End Site
											{
												OFFSET 0.415260 3.926476 -0.049563
											}
										}
									}
								}
								JOINT RightHandIndex1
								{
									OFFSET -11.334419 -0.901459 3.706815
									CHANNELS 3 Xrotation Yrotation Zrotation
									JOINT RightHandIndex2
									{
										OFFSET -3.283112 0.000000 0.000000
										CHANNELS 3 Xrotation Yrotation Zrotation
										JOINT RightHandIndex3
										{
											OFFSET -3.323853 0.000000 0.000000
											CHANNELS 3 Xrotation Yrotation Zrotation
											End Site
											{
												OFFSET 1.135597 3.097809 0.402452
											}
										}
									}
								}
								JOINT RightHandMiddle1
								{
									OFFSET -11.335861 0.000000 0.000000
									CHANNELS 3 Xrotation Yrotation Zrotation
									JOINT RightHandMiddle2
									{
										OFFSET -3.410492 0.000000 0.000000
										CHANNELS 3 Xrotation Yrotation Zrotation
										JOINT RightHandMiddle3
										{
											OFFSET -3.312172 0.000000 0.000000
											CHANNELS 3 Xrotation Yrotation Zrotation
											End Site
											{
												OFFSET 1.150200 3.080154 0.400270
											}
										}
									}
								}
								JOINT RightHandRing1
								{
									OFFSET -11.514786 -0.013176 -3.003090
									CHANNELS 3 Xrotation Yrotation Zrotation
									JOINT RightHandRing2
									{
										OFFSET -3.053307 0.000000 0.000000
										CHANNELS 3 Xrotation Yrotation Zrotation
										JOINT RightHandRing3
										{
											OFFSET -3.295807 0.000000 0.000000
											CHANNELS 3 Xrotation Yrotation Zrotation
											End Site
											{
												OFFSET 1.281006 3.013344 0.375733
											}
										}
									}
								}
								JOINT RightHandPinky1
								{
									OFFSET -10.518692 -0.960396 -5.730441
									CHANNELS 3 Xrotation Yrotation Zrotation
									JOINT RightHandPinky2
									{
										OFFSET -2.861649 0.000000 0.000000
										CHANNELS 3 Xrotation Yrotation Zrotation
										JOINT RightHandPinky3
										{
											OFFSET -2.863380 0.000000 0.000000
											CHANNELS 3 Xrotation Yrotation Zrotation
											End Site
											{
												OFFSET 0.843597 2.711159 0.369971
											}
										}
									}
								}
							}
							JOINT RSleeve
							{
								OFFSET -6.676277 -0.344902 -1.011730
								CHANNELS 3 Xrotation Yrotation Zrotation
								End Site
								{
									OFFSET 0.000000 14.885353 0.000000
								}
							}
						}
					}
				}
				JOINT Backpack
				{
					OFFSET 0.000000 -2.471497 36.677502
					CHANNELS 3 Xrotation Yrotation Zrotation
					End Site
					{
						OFFSET 0.000000 20.427315 0.000000
					}
				}
				JOINT Hood
				{
					OFFSET 0.000000 18.754097 -10.431000
					CHANNELS 3 Xrotation Yrotation Zrotation
					JOINT Hood1
					{
						OFFSET 0.000000 -5.011002 -7.685901
						CHANNELS 3 Xrotation Yrotation Zrotation
						End Site
						{
							OFFSET 0.000000 9.175140 0.000000
						}
					}
				}
				JOINT LHoodieString
				{
					OFFSET 5.250500 16.397697 3.089900
					CHANNELS 3 Xrotation Yrotation Zrotation
					JOINT LHoodieString1
					{
						OFFSET 0.257700 -6.364304 3.694600
						CHANNELS 3 Xrotation Yrotation Zrotation
						JOINT LHoodieString2
						{
							OFFSET 0.000000 -9.643799 2.679100
							CHANNELS 3 Xrotation Yrotation Zrotation
							End Site
							{
								OFFSET 0.000000 10.009018 0.000000
							}
						}
					}
				}
				JOINT RHoodieString
				{
					OFFSET -5.250500 16.397697 3.089900
					CHANNELS 3 Xrotation Yrotation Zrotation
					JOINT RHoodieString1
					{
						OFFSET -0.257700 -6.364304 3.694600
						CHANNELS 3 Xrotation Yrotation Zrotation
						JOINT RHoodieString2
						{
							OFFSET 0.000000 -9.643799 2.679100
							CHANNELS 3 Xrotation Yrotation Zrotation
							End Site
							{
								OFFSET 0.000000 10.009018 0.000000
							}
						}
					}
				}
			}
			JOINT LBackpack_Strap
			{
				OFFSET 15.223200 -7.719803 -6.610900
				CHANNELS 3 Xrotation Yrotation Zrotation
				End Site
				{
					OFFSET 0.000000 16.040596 0.000000
				}
			}
			JOINT RBackpack_Strap
			{
				OFFSET -15.223000 -7.719803 -6.610900
				CHANNELS 3 Xrotation Yrotation Zrotation
				End Site
				{
					OFFSET 0.000000 16.040596 0.000000
				}
			}
		}
	}
	JOINT BoyFacialAnim_Joint
	{
		OFFSET 1.000000 -82.208099 -1.550900
		CHANNELS 3 Xrotation Yrotation Zrotation
		End Site
		{
			OFFSET 0.000000 30.012791 0.000000
		}
	}
}
MOTION
Frames: 4
Frame Time: 0.033333
0.829092 74.989334 -0.424577 9.545442 -61.619556 10.152538 0.000000 -0.000000 -0.000000 -36.689857 11.885767 23.485773 36.108915 -6.737270 1.195217 -5.487476 -2.273953 -16.040305 0.000000 0.000000 0.000000 0.000000 0.000000 0.000000 0.000000 0.000002 0.000001 -31.264098 -19.562855 -32.364599 35.167005 3.481078 -4.079133 -11.011704 0.860875 22.482425 -0.000000 -0.000000 0.000000 -0.000000 -0.000000 0.000000 -0.000000 -0.000000 -0.000000 15.067078 -0.321975 -4.285455 5.872813 0.571286 -2.801499 5.868648 0.648780 -2.855412 -3.637098 1.441043 3.747217 -20.003565 54.833541 2.409348 -0.000000 -0.000000 0.000000 -0.000000 -0.000000 0.000000 -0.000000 -0.000000 0.000000 1.828174 -3.192633 -12.271570 -39.388673 26.347465 -34.911457 0.430885 -46.809704 0.417387 -10.315466 -0.127116 0.363988 40.109965 -15.297037 -0.360461 5.639874 28.097713 11.338788 -0.000000 0.000001 0.000000 6.882144 2.840121 -61.140370 8.248133 7.640135 -89.897884 -0.000005 -0.000003 -0.000002 -2.345639 4.688891 -62.655231 8.754166 9.897146 -87.051266 0.000003 -0.000001 -0.000002 -9.042555 10.045629 -60.766096 8.524103 9.508907 -66.893056 -0.000001 0.000001 -0.000005 -17.947000 14.755029 -51.485751 8.868412 8.667077 -84.812023 -0.000001 -0.000001 -0.000004 0.000001 0.000000 0.000001 0.631535 7.257340 8.703770 7.936411 -9.680866 53.430405 -22.866751 36.192343 17.964147 -27.375426 10.434499 -17.812652 -2.346185 -6.100599 10.731400 2.364023 -23.806196 -8.771139 0.000000 0.000000 0.000001 -0.062798 0.531041 0.738678 0.018459 -0.087506 5.078545 0.000000 -0.000002 0.000005 0.349567 -5.918577 2.583852 1.432566 -4.204289 24.052014 0.000001 0.000000 0.000001 1.205880 -11.756075 4.154783 1.794808 -3.771807 26.865369 0.000000 0.000001 0.000002 2.126219 -19.166928 11.319853 3.354718 -2.122068 18.828497 0.000001 0.000000 -0.000001 -0.000002 0.000001 -0.000001 0.000002 0.000003 -0.000000 0.000002 0.000003 -0.000000 0.000002 0.000003 -0.000000 0.000002 0.000003 -0.000000 0.000002 0.000003 -0.000000 0.000002 0.000000 0.000001 0.000002 0.000003 -0.000000 0.000002 0.000003 -0.000000 0.000002 0.000000 0.000001 0.000001 0.000000 -0.000000 0.000001 0.000000 -0.000000 0.000000 -0.000000 -0.000000 
-0.087119 74.584564 -0.240129 4.291503 -61.445748 5.032242 0.000000 0.000002 -0.000000 -35.068401 11.959785 24.370506 38.429086 -6.352380 2.234651 -7.449618 -3.667681 -16.885638 0.000000 0.000002 0.000000 0.000000 0.000002 0.000000 0.000001 0.000003 0.000002 -28.462100 -20.194170 -33.621627 36.813265 4.602467 -1.940123 -12.903729 0.595138 21.495857 -0.000000 -0.000000 0.000000 -0.000000 -0.000000 0.000000 0.000002 -0.000000 -0.000001 18.276753 -0.404038 -3.978469 6.409390 0.519668 -2.648625 6.386696 0.569022 -2.694804 -0.712837 1.278471 3.795267 -27.537122 51.310403 6.786272 0.000000 0.000000 -0.000001 0.000000 0.000000 -0.000001 0.000000 0.000000 -0.000001 1.405017 -5.840071 -10.309893 -34.303177 24.916148 -36.459676 0.415510 -49.613350 0.460646 -14.880491 4.700001 -0.849049 40.109965 -15.297037 -0.360468 5.639872 28.097715 11.338785 -0.000000 0.000000 0.000002 6.882141 2.840125 -61.140370 8.248135 7.640138 -89.897891 -0.000001 0.000001 -0.000003 -2.345643 4.688895 -62.655238 8.754170 9.897146 -87.051266 0.000001 -0.000000 0.000002 -9.042558 10.045631 -60.766103 8.524104 9.508907 -66.893056 -0.000000 0.000003 -0.000003 -17.947005 14.755032 -51.485758 8.868409 8.667081 -84.812023 -0.000000 0.000001 -0.000000 -0.000002 0.000001 0.000001 1.264591 9.755002 7.378079 3.478645 -7.571707 52.186791 -20.455518 36.446938 16.039137 -17.587732 16.184963 -10.472978 -2.346249 -6.100623 10.731387 2.249760 -23.215384 -8.584714 -0.000001 -0.000002 -0.000003 -0.050513 0.324700 2.081466 0.034322 -0.233051 6.084157 -0.000000 -0.000000 0.000002 0.356149 -6.068637 3.517483 1.477611 -4.305155 24.737376 -0.000000 0.000001 -0.000002 0.891108 -11.800446 5.773390 1.856281 -3.892456 27.661178 0.000002 0.000000 0.000002 2.172347 -19.393885 12.683649 3.403655 -2.272978 19.761954 -0.000003 -0.000003 0.000001 0.000001 0.000002 0.000002 0.000001 0.000003 -0.000003 0.000001 0.000003 -0.000003 0.000001 0.000003 -0.000003 0.000001 0.000003 -0.000003 0.000001 0.000003 -0.000003 0.000001 0.000000 0.000002 0.000001 0.000003 -0.000003 0.000001 0.000003 -0.000003 0.000001 0.000000 0.000002 0.000001 0.000001 -0.000000 0.000001 0.000001 -0.000000 0.000000 0.000002 -0.000000 
-1.809026 73.782631 0.561624 -11.385197 -58.484553 -9.309948 -0.000000 0.000000 0.000000 -29.544311 12.895669 25.811454 43.358007 -7.820450 4.480719 -11.413516 -6.141412 -17.291005 0.000000 0.000001 -0.000000 0.000000 0.000001 -0.000000 0.000000 0.000003 -0.000000 -19.024478 -23.764426 -34.419768 38.134650 4.658374 -2.898766 -16.069869 0.489147 23.118211 -0.000000 0.000000 -0.000000 -0.000000 0.000000 -0.000000 -0.000000 0.000001 0.000001 21.110025 -0.365351 -3.371757 6.868324 0.448263 -2.308481 6.830441 0.439675 -2.337289 5.865927 0.909586 4.022332 -18.221025 43.255595 1.932503 -0.000000 -0.000000 0.000000 -0.000000 -0.000000 0.000000 -0.000000 -0.000000 0.000000 1.063483 -10.886920 -6.312180 -22.329410 22.353621 -40.489423 0.338412 -56.210780 0.527118 -22.726886 15.347666 -1.142577 40.109965 -15.297039 -0.360466 5.639872 28.097715 11.338797 0.000000 -0.000000 -0.000001 6.882139 2.840117 -61.140370 8.248131 7.640136 -89.897891 0.000001 -0.000001 -0.000002 -2.345639 4.688892 -62.655238 8.754171 9.897140 -87.051273 -0.000000 0.000001 -0.000003 -9.042552 10.045629 -60.766096 8.524103 9.508907 -66.893049 -0.000002 0.000003 -0.000000 -17.947005 14.755027 -51.485758 8.868412 8.667080 -84.812023 0.000003 0.000003 0.000000 0.000000 0.000000 0.000000 2.079707 11.365329 4.576027 -4.513261 -2.636310 52.159559 -14.590701 36.583767 11.327593 -1.950823 21.361050 -0.009099 -2.346212 -6.100580 10.731393 1.991525 -21.917339 -8.172427 0.000004 0.000003 -0.000001 -0.012833 -0.195128 5.438080 0.082694 -0.607643 8.677578 -0.000003 0.000000 0.000000 0.386312 -6.437721 5.804326 1.598076 -4.558807 26.480987 -0.000001 -0.000000 -0.000004 0.688888 -11.867284 8.412787 2.017752 -4.189999 29.651603 -0.000001 -0.000001 0.000004 2.305640 -19.909730 15.836362 3.536949 -2.638813 22.048243 -0.000002 0.000000 0.000000 -0.000000 -0.000001 -0.000000 0.000002 0.000004 -0.000003 0.000002 0.000004 -0.000003 0.000002 0.000004 -0.000003 0.000002 0.000004 -0.000003 0.000002 0.000004 -0.000002 0.000002 0.000000 0.000001 0.000002 0.000004 -0.000003 0.000002 0.000004 -0.000002 0.000002 0.000000 0.000001 -0.000000 0.000000 -0.000000 -0.000000 0.000000 -0.000000 -0.000000 0.000000 0.000000 
-4.117828 73.177895 2.207242 -26.111651 -50.391483 -21.764181 -0.000000 0.000001 -0.000000 -22.807745 14.267596 26.675925 49.645148 -10.606305 8.580888 -15.448544 -9.458686 -15.039062 -0.000000 0.000000 0.000000 -0.000000 0.000000 0.000000 0.000000 0.000003 0.000001 -2.563613 -30.671887 -33.514775 33.917463 3.267744 -4.047358 -17.568835 0.036104 26.390703 0.000000 -0.000000 -0.000000 0.000000 -0.000000 -0.000000 -0.000000 0.000000 -0.000000 20.601066 0.251396 -2.972798 6.494741 0.481574 -1.950146 6.485021 0.427118 -1.961053 12.911787 0.528934 4.515483 0.586251 32.666421 -0.681627 0.000001 0.000000 0.000001 0.000001 0.000000 0.000001 0.000001 0.000000 0.000001 1.237022 -13.760535 -2.859492 -8.443497 20.725029 -47.418459 0.231236 -63.992322 0.585126 -26.828343 24.882335 0.365641 40.109961 -15.297039 -0.360465 5.639872 28.097713 11.338777 -0.000000 -0.000000 0.000001 6.882141 2.840120 -61.140370 8.248133 7.640133 -89.897891 -0.000004 -0.000001 0.000002 -2.345638 4.688891 -62.655238 8.754166 9.897145 -87.051266 -0.000001 -0.000003 -0.000002 -9.042559 10.045625 -60.766096 8.524111 9.508905 -66.893049 -0.000000 -0.000001 -0.000004 -17.947007 14.755029 -51.485754 8.868410 8.667081 -84.812023 0.000001 -0.000001 -0.000000 -0.000001 0.000002 0.000003 1.126095 11.213688 1.174629 -8.363737 2.282644 54.121500 -7.555593 35.945527 5.881138 14.867140 3.181602 15.854081 -2.346184 -6.100582 10.731364 1.724168 -20.621661 -7.756914 -0.000001 -0.000001 -0.000002 0.077765 -0.874200 9.801366 0.176456 -1.115369 12.224632 0.000001 0.000001 0.000000 0.445566 -6.903090 8.672873 1.772076 -4.891706 28.814126 0.000000 0.000000 -0.000000 0.455495 -11.945002 11.564580 2.244379 -4.568358 32.241420 -0.000001 0.000000 0.000000 2.497638 -20.470140 19.362763 3.731046 -3.089504 24.915967 -0.000000 -0.000000 0.000000 0.000003 -0.000000 -0.000002 0.000001 0.000004 -0.000001 0.000001 0.000004 -0.000001 0.000001 0.000004 -0.000001 0.000001 0.000004 -0.000001 0.000001 0.000004 -0.000001 -0.000001 -0.000003 0.000000 0.000001 0.000004 -0.000001 0.000001 0.000004 -0.000001 -0.000001 -0.000003 0.000000 -0.000000 -0.000000 0.000000 -0.000000 -0.000000 0.000000 -0.000000 0.000001 -0.000000 
